<mxfile host="app.diagrams.net" modified="2021-07-21T05:05:23.324Z" agent="5.0 (Windows NT 10.0; Win64; x64) AppleWebKit/537.36 (KHTML, like Gecko) Chrome/91.0.4472.164 Safari/537.36" etag="zqqnnap5UvYyooLCVaJ8" version="14.8.5" type="github">
  <diagram id="tFrWCr_RHsTVMiMfS6ZB" name="类的加载">
    <mxGraphModel dx="868" dy="450" grid="1" gridSize="10" guides="1" tooltips="1" connect="1" arrows="1" fold="1" page="1" pageScale="1" pageWidth="827" pageHeight="1169" math="0" shadow="0">
      <root>
        <mxCell id="0" />
        <mxCell id="1" parent="0" />
        <mxCell id="jGKa6otBGCpJ0rLA2faZ-4" style="edgeStyle=orthogonalEdgeStyle;rounded=0;orthogonalLoop=1;jettySize=auto;html=1;exitX=1;exitY=0.5;exitDx=0;exitDy=0;entryX=0;entryY=0.5;entryDx=0;entryDy=0;" edge="1" parent="1" source="jGKa6otBGCpJ0rLA2faZ-1" target="jGKa6otBGCpJ0rLA2faZ-3">
          <mxGeometry relative="1" as="geometry" />
        </mxCell>
        <mxCell id="jGKa6otBGCpJ0rLA2faZ-1" value="" style="rounded=0;whiteSpace=wrap;html=1;fillColor=#fff2cc;strokeColor=#d6b656;" vertex="1" parent="1">
          <mxGeometry x="180" y="90" width="120" height="60" as="geometry" />
        </mxCell>
        <mxCell id="jGKa6otBGCpJ0rLA2faZ-2" value="*.java&lt;br&gt;....&lt;br&gt;......" style="text;html=1;strokeColor=none;fillColor=none;align=center;verticalAlign=middle;whiteSpace=wrap;rounded=0;" vertex="1" parent="1">
          <mxGeometry x="220" y="110" width="40" height="20" as="geometry" />
        </mxCell>
        <mxCell id="jGKa6otBGCpJ0rLA2faZ-3" value="" style="rounded=0;whiteSpace=wrap;html=1;fillColor=#ffe6cc;strokeColor=#d79b00;" vertex="1" parent="1">
          <mxGeometry x="414" y="90" width="120" height="60" as="geometry" />
        </mxCell>
        <mxCell id="jGKa6otBGCpJ0rLA2faZ-5" value="打包" style="text;html=1;strokeColor=none;fillColor=none;align=center;verticalAlign=middle;whiteSpace=wrap;rounded=0;" vertex="1" parent="1">
          <mxGeometry x="320" y="90" width="40" height="20" as="geometry" />
        </mxCell>
        <mxCell id="jGKa6otBGCpJ0rLA2faZ-10" style="edgeStyle=orthogonalEdgeStyle;rounded=0;orthogonalLoop=1;jettySize=auto;html=1;exitX=0.5;exitY=1;exitDx=0;exitDy=0;entryX=0.5;entryY=0;entryDx=0;entryDy=0;" edge="1" parent="1" source="jGKa6otBGCpJ0rLA2faZ-6" target="jGKa6otBGCpJ0rLA2faZ-8">
          <mxGeometry relative="1" as="geometry" />
        </mxCell>
        <mxCell id="jGKa6otBGCpJ0rLA2faZ-6" value="*.class&lt;br&gt;.....&lt;br&gt;......" style="text;html=1;strokeColor=none;fillColor=none;align=center;verticalAlign=middle;whiteSpace=wrap;rounded=0;" vertex="1" parent="1">
          <mxGeometry x="420" y="90" width="110" height="60" as="geometry" />
        </mxCell>
        <mxCell id="jGKa6otBGCpJ0rLA2faZ-7" value="" style="rounded=0;whiteSpace=wrap;html=1;fillColor=#e1d5e7;strokeColor=#9673a6;" vertex="1" parent="1">
          <mxGeometry x="410" y="260" width="120" height="90" as="geometry" />
        </mxCell>
        <mxCell id="jGKa6otBGCpJ0rLA2faZ-13" style="edgeStyle=orthogonalEdgeStyle;rounded=0;orthogonalLoop=1;jettySize=auto;html=1;exitX=0.5;exitY=1;exitDx=0;exitDy=0;entryX=0.5;entryY=0;entryDx=0;entryDy=0;" edge="1" parent="1" source="jGKa6otBGCpJ0rLA2faZ-8" target="jGKa6otBGCpJ0rLA2faZ-12">
          <mxGeometry relative="1" as="geometry">
            <Array as="points">
              <mxPoint x="475" y="290" />
              <mxPoint x="510" y="290" />
            </Array>
          </mxGeometry>
        </mxCell>
        <mxCell id="jGKa6otBGCpJ0rLA2faZ-8" value="" style="rounded=1;whiteSpace=wrap;html=1;fillColor=#f5f5f5;strokeColor=#666666;fontColor=#333333;" vertex="1" parent="1">
          <mxGeometry x="440" y="240" width="70" height="40" as="geometry" />
        </mxCell>
        <mxCell id="jGKa6otBGCpJ0rLA2faZ-9" value="类加载器" style="text;html=1;strokeColor=none;fillColor=none;align=center;verticalAlign=middle;whiteSpace=wrap;rounded=0;" vertex="1" parent="1">
          <mxGeometry x="447.5" y="250" width="55" height="20" as="geometry" />
        </mxCell>
        <mxCell id="jGKa6otBGCpJ0rLA2faZ-11" value="JVM" style="text;html=1;strokeColor=none;fillColor=none;align=center;verticalAlign=middle;whiteSpace=wrap;rounded=0;" vertex="1" parent="1">
          <mxGeometry x="414" y="280" width="40" height="20" as="geometry" />
        </mxCell>
        <mxCell id="jGKa6otBGCpJ0rLA2faZ-15" style="edgeStyle=orthogonalEdgeStyle;rounded=0;orthogonalLoop=1;jettySize=auto;html=1;exitX=0.5;exitY=1;exitDx=0;exitDy=0;entryX=0.75;entryY=1;entryDx=0;entryDy=0;" edge="1" parent="1" source="jGKa6otBGCpJ0rLA2faZ-12" target="jGKa6otBGCpJ0rLA2faZ-14">
          <mxGeometry relative="1" as="geometry" />
        </mxCell>
        <mxCell id="jGKa6otBGCpJ0rLA2faZ-12" value="类" style="text;html=1;strokeColor=none;fillColor=none;align=center;verticalAlign=middle;whiteSpace=wrap;rounded=0;" vertex="1" parent="1">
          <mxGeometry x="490" y="315" width="40" height="20" as="geometry" />
        </mxCell>
        <mxCell id="jGKa6otBGCpJ0rLA2faZ-17" style="edgeStyle=orthogonalEdgeStyle;rounded=0;orthogonalLoop=1;jettySize=auto;html=1;exitX=0;exitY=0.5;exitDx=0;exitDy=0;entryX=1;entryY=0.5;entryDx=0;entryDy=0;" edge="1" parent="1" source="jGKa6otBGCpJ0rLA2faZ-14" target="jGKa6otBGCpJ0rLA2faZ-16">
          <mxGeometry relative="1" as="geometry" />
        </mxCell>
        <mxCell id="jGKa6otBGCpJ0rLA2faZ-14" value="执行" style="text;html=1;strokeColor=none;fillColor=none;align=center;verticalAlign=middle;whiteSpace=wrap;rounded=0;" vertex="1" parent="1">
          <mxGeometry x="450" y="315" width="40" height="20" as="geometry" />
        </mxCell>
        <mxCell id="jGKa6otBGCpJ0rLA2faZ-16" value="卸载" style="text;html=1;strokeColor=none;fillColor=none;align=center;verticalAlign=middle;whiteSpace=wrap;rounded=0;" vertex="1" parent="1">
          <mxGeometry x="394" y="320" width="40" height="20" as="geometry" />
        </mxCell>
      </root>
    </mxGraphModel>
  </diagram>
</mxfile>
